<svg xmlns="http://www.w3.org/2000/svg" width="600" height="600" viewBox="0 0 600 600" role="img" aria-label="Perfume image placeholder">
  <defs>
    <linearGradient id="g" x1="0" y1="0" x2="1" y2="1">
      <stop offset="0" stop-color="#f2f2f2"/>
      <stop offset="1" stop-color="#e6e6e6"/>
    </linearGradient>
  </defs>
  <rect width="600" height="600" fill="url(#g)"/>
  <rect x="70" y="70" width="460" height="460" rx="28" fill="none" stroke="#bdbdbd" stroke-width="6" stroke-dasharray="10 10"/>
  <g fill="none" stroke="#9e9e9e" stroke-width="8" stroke-linecap="round" stroke-linejoin="round">
    <path d="M260 200h80"/>
    <path d="M250 240h100"/>
    <path d="M235 300c0-26 21-47 47-47h36c26 0 47 21 47 47v130c0 22-18 40-40 40h-50c-22 0-40-18-40-40V300z"/>
    <path d="M285 253v-28c0-10 8-18 18-18h-6c10 0 18 8 18 18v28"/>
  </g>
  <text x="300" y="515" text-anchor="middle" font-family="Arial, sans-serif" font-size="24" fill="#7a7a7a">Image unavailable</text>
</svg>
